<svg width="20" height="20" viewBox="0 0 20 20" fill="none" xmlns="http://www.w3.org/2000/svg">
<path d="M17.2084 9.29211H10.7084V2.79211C10.7084 2.40148 10.3909 2.08398 10.0002 2.08398C9.60961 2.08398 9.29211 2.40148 9.29211 2.79211V9.29211H2.79211C2.40148 9.29211 2.08398 9.60961 2.08398 10.0002C2.08398 10.3909 2.40148 10.7084 2.79211 10.7084H9.29211V17.2084C9.29211 17.599 9.60961 17.9165 10.0002 17.9165C10.3909 17.9165 10.7084 17.599 10.7084 17.2084L10.7084 10.7084L17.2084 10.7084C17.599 10.7084 17.9165 10.3909 17.9165 10.0002C17.9165 9.60961 17.599 9.29211 17.2084 9.29211Z" fill="#262626"/>
</svg>
