<svg width="20" height="20" viewBox="0 0 20 20" fill="none" xmlns="http://www.w3.org/2000/svg">
<path d="M14.4721 6.17578H8.78564C8.60629 6.17631 8.42879 6.2174 8.2633 6.2967C8.09781 6.376 7.94757 6.49195 7.82117 6.63792C7.69478 6.7839 7.59472 6.95702 7.52671 7.1474C7.4587 7.33777 7.42407 7.54166 7.42482 7.7474L7.42482 15.9283C7.42482 16.796 8.03418 17.4999 8.78564 17.4999H14.4721C14.6515 17.4994 14.829 17.4583 14.9945 17.379C15.16 17.2997 15.3102 17.1837 15.4366 17.0378C15.563 16.8918 15.663 16.7187 15.7311 16.5283C15.7991 16.3379 15.8337 16.134 15.8329 15.9283V7.7474C15.8329 6.87969 15.2236 6.17578 14.4721 6.17578Z" stroke="#262626" stroke-width="1.5" stroke-linecap="round" stroke-linejoin="round"/>
<path d="M12.5751 6.17847V4.07162C12.5751 3.65479 12.4316 3.255 12.1764 2.96062C12.0504 2.81489 11.9006 2.69916 11.7354 2.62011C11.5703 2.54106 11.3932 2.50024 11.2143 2.5L5.52782 2.5C5.16729 2.5 4.8209 2.66543 4.5664 2.96062C4.31101 3.25623 4.16749 3.65542 4.16699 4.07162L4.16699 12.2525C4.16699 12.6693 4.3105 13.0691 4.5657 13.3635C4.82089 13.6579 5.16658 13.8241 5.52782 13.8241H7.4259" stroke="#262626" stroke-width="1.5" stroke-linecap="round" stroke-linejoin="round"/>
</svg>
