<svg width="20" height="20" viewBox="0 0 20 20" fill="none" xmlns="http://www.w3.org/2000/svg">
<path d="M14.5961 4.40199L10.0005 8.99887L5.40484 4.40199C5.12797 4.12512 4.67984 4.12512 4.40297 4.40199C4.12609 4.67887 4.12609 5.12699 4.40297 5.40387L8.99859 10.0007L4.40297 14.5964C4.12609 14.8732 4.12609 15.3214 4.40297 15.5982C4.67984 15.8751 5.12797 15.8751 5.40484 15.5982L10.0005 11.0026L14.5961 15.5982C14.873 15.8751 15.3211 15.8751 15.598 15.5982C15.8748 15.3214 15.8748 14.8732 15.598 14.5964L11.0023 10.0007L15.598 5.40512C15.8748 5.12824 15.8748 4.68012 15.598 4.40324C15.3223 4.12637 14.873 4.12574 14.5961 4.40199Z" fill="#262626"/>
</svg>
