<svg width="20" height="20" viewBox="0 0 20 20" fill="none" xmlns="http://www.w3.org/2000/svg">
<path d="M4.88856 15.7775H5.9969L13.5997 8.17467L12.4913 7.06634L4.88856 14.6691V15.7775ZM3.33301 17.333L3.33301 14.0275L13.5997 3.78023C13.7552 3.63764 13.9271 3.52745 14.1153 3.44967C14.3036 3.3719 14.5011 3.33301 14.708 3.33301C14.9149 3.33301 15.1158 3.3719 15.3108 3.44967C15.5057 3.52745 15.6743 3.64412 15.8163 3.79967L16.8858 4.88856C17.0413 5.03116 17.1549 5.19967 17.2264 5.39412C17.298 5.58856 17.3335 5.78301 17.333 5.97745C17.333 6.18486 17.2975 6.38267 17.2264 6.5709C17.1554 6.75912 17.0419 6.93075 16.8858 7.08579L6.63856 17.333H3.33301ZM13.0358 7.63023L12.4913 7.06634L13.5997 8.17467L13.0358 7.63023Z" fill="#262626"/>
</svg>
